<svg version="1.1" id="Layer_1" xmlns="http://www.w3.org/2000/svg" xmlns:xlink="http://www.w3.org/1999/xlink" x="0px" y="0px"
	 width="100%" viewBox="0 0 512 512" enable-background="new 0 0 512 512" xml:space="preserve">
<path fill="#FFFFFF" opacity="1.000000" stroke="none" 
	d="
M40.000000,513.000000 
	C27.008892,513.000000 14.017783,513.000000 1.061397,513.000000 
	C1.061397,342.333313 1.061397,171.666656 1.061397,1.000000 
	C30.436090,1.000000 59.749386,1.000000 89.417015,1.367093 
	C69.348076,6.042361 52.317806,32.889519 68.752869,58.696617 
	C53.230255,62.263828 40.737442,75.786430 41.880363,93.624641 
	C42.539566,103.913147 42.672626,114.337364 41.774635,124.589455 
	C41.125130,132.004715 49.287830,138.986313 55.987778,138.991150 
	C84.647232,139.011841 113.306938,139.062454 141.966034,138.959534 
	C149.934143,138.930923 155.987167,132.486328 155.996475,124.545807 
	C156.010147,112.882088 156.012421,101.218307 155.984467,89.554634 
	C155.980927,88.077827 156.003067,86.535141 155.611633,85.135300 
	C151.772827,71.407166 143.410477,62.107643 129.211823,58.680935 
	C136.386490,44.592049 135.044235,44.871861 134.979843,32.856586 
	C134.937836,25.017294 131.295456,18.622515 126.358810,12.882814 
	C121.192154,6.875687 114.300179,3.582110 107.000000,1.000000 
	C242.271378,1.000000 377.542755,1.000000 512.907104,1.000000 
	C512.907104,171.666641 512.907104,342.333313 512.913818,513.000000 
	C500.592743,513.000000 488.265045,513.000000 475.551758,512.652832 
	C477.900116,509.927124 480.039978,507.142029 478.687225,503.349274 
	C477.329224,499.541748 474.534210,497.263489 470.000000,497.927429 
	C470.000000,495.801758 470.000000,494.146729 470.000000,492.491699 
	C470.000000,463.329651 469.946289,434.167419 470.066895,405.005859 
	C470.082245,401.294495 468.458008,399.411224 465.402100,397.800629 
	C462.081848,396.050781 458.837860,396.639709 457.061951,399.151215 
	C455.264587,401.693146 454.150574,405.283691 454.126404,408.425598 
	C453.909821,436.586121 454.000000,464.749023 454.000000,492.911224 
	C454.000000,494.517334 454.000000,496.123413 454.000000,497.742798 
	C426.748901,497.742798 400.013245,497.742798 373.249268,497.742798 
	C373.249268,424.088348 373.249268,350.691406 373.249268,277.249176 
	C400.234894,277.249176 426.970490,277.249176 454.000000,277.249176 
	C454.000000,278.630341 454.000000,279.764862 454.000000,280.899353 
	C454.000000,309.228180 453.999786,337.557037 454.000610,365.885864 
	C454.000641,367.218964 453.823822,368.584229 454.048004,369.879395 
	C454.885498,374.718414 458.825439,378.249908 462.930969,377.998993 
	C467.382263,377.726898 469.999603,374.297180 469.999695,368.729431 
	C470.000336,338.400909 469.756622,308.069305 470.138611,277.745575 
	C470.263824,267.803375 465.067413,261.195984 454.239258,261.088013 
	C427.412872,260.820465 400.579498,260.791443 373.754211,261.110779 
	C364.061890,261.226105 357.729980,266.585327 357.792419,277.642151 
	C358.197266,349.295166 358.000000,420.951599 358.000000,492.606903 
	C358.000000,494.361145 358.000000,496.115356 358.000000,497.671631 
	C342.606659,497.671631 327.867889,497.671631 313.000000,497.671631 
	C313.000000,495.854706 313.000000,494.365723 313.000000,492.876770 
	C313.000000,457.382416 313.005951,421.888031 312.995331,386.393677 
	C312.992981,378.522888 307.576111,371.317047 300.900574,371.081360 
	C291.746735,370.758240 282.541382,370.588959 273.429962,371.289093 
	C271.145905,371.464630 267.867157,374.898468 267.254486,377.380188 
	C265.806610,383.245117 268.083344,386.357117 276.183746,386.903992 
	C283.069733,387.368866 290.011993,386.999969 296.651306,386.999969 
	C296.651306,424.436890 296.651306,461.172272 296.651306,497.651428 
	C269.564972,497.651428 242.828033,497.651428 216.346802,497.651428 
	C216.346802,460.566925 216.346802,423.831512 216.346802,386.999908 
	C224.186386,386.999908 231.680450,387.074799 239.172104,386.972107 
	C243.737244,386.909546 247.825317,383.123230 247.958588,379.129761 
	C248.114334,374.462646 244.375015,371.023285 239.047012,371.006531 
	C231.048355,370.981354 223.049576,370.997284 215.050842,371.000763 
	C206.072205,371.004669 200.002213,377.019989 200.001373,385.928406 
	C199.998062,421.422791 200.000000,456.917145 200.000000,492.411530 
	C200.000000,494.184448 200.000000,495.957397 200.000000,497.740723 
	C184.746521,497.740723 170.009308,497.740723 155.000000,497.740723 
	C155.000000,495.680389 155.000000,493.876343 155.000000,492.072327 
	C155.000000,382.922974 154.936111,273.773499 155.146057,164.624527 
	C155.159821,157.470108 148.047256,150.781677 141.722000,150.855301 
	C113.230370,151.186905 84.732681,150.983047 56.237324,151.041656 
	C54.506878,151.045212 52.675949,151.388367 51.065170,152.017456 
	C43.377354,155.020111 42.021160,161.624542 42.019306,168.766556 
	C41.991436,276.082886 42.000000,383.399200 42.000000,490.715515 
	C42.000000,493.036896 42.000000,495.358307 42.000000,497.679688 
	C41.546925,497.433533 41.093853,497.187378 40.640778,496.941223 
	C39.097065,499.107391 36.838013,501.076691 36.175060,503.485291 
	C35.146370,507.222687 36.254326,510.821472 40.000000,513.000000 
M447.980164,162.210098 
	C453.965637,144.810318 449.921906,127.882355 434.774536,117.692184 
	C420.841919,108.319206 404.891022,108.057152 388.363403,121.234146 
	C376.388947,130.781021 374.699432,148.746338 383.665955,169.753403 
	C370.449371,171.551849 357.299866,184.941788 357.039062,200.131729 
	C356.841797,211.622940 357.362457,223.135864 356.868896,234.609222 
	C356.554749,241.911835 361.795563,249.912231 372.098663,249.957626 
	C400.084991,250.080902 428.072815,250.105240 456.058746,249.944077 
	C466.151520,249.885956 471.460999,242.049057 471.130280,234.451630 
	C470.630829,222.978775 471.501373,211.436279 470.774902,199.987778 
	C470.443665,194.767654 468.496613,189.233887 465.855774,184.667435 
	C461.091095,176.428513 453.472168,171.351501 443.874146,169.499039 
	C445.240997,167.085999 446.420441,165.003799 447.980164,162.210098 
M314.000031,332.492981 
	C313.666748,324.083221 313.608551,315.651123 312.927002,307.269684 
	C312.162292,297.865692 307.579071,290.320892 299.788330,285.059937 
	C295.789612,282.359680 291.260956,280.444244 286.971619,278.174042 
	C298.934357,257.740906 292.307465,238.021011 278.090454,227.930298 
	C264.680969,218.412735 247.874268,216.390015 230.527512,231.297821 
	C224.762772,236.252014 221.029526,243.360046 220.183075,251.009781 
	C219.119919,260.618164 219.840347,270.227631 226.281677,278.385986 
	C224.904022,279.031311 223.919144,279.608490 222.860748,279.970886 
	C208.459717,284.902344 200.546844,295.449371 199.220261,310.091095 
	C198.142181,321.990082 198.735001,334.072815 199.102936,346.058197 
	C199.318802,353.090027 205.849472,358.974823 212.549316,358.983551 
	C241.874527,359.021759 271.199829,359.019165 300.525024,358.983887 
	C306.414978,358.976807 312.019836,354.530334 312.914398,348.665588 
	C313.676758,343.667755 313.667755,338.552277 314.000031,332.492981 
z"/>
<path fill="#000000" opacity="1.000000" stroke="none" 
	d="
M40.468658,513.000000 
	C36.254326,510.821472 35.146370,507.222687 36.175060,503.485291 
	C36.838013,501.076691 39.097065,499.107391 40.640778,496.941223 
	C41.093853,497.187378 41.546925,497.433533 42.000000,497.679688 
	C42.000000,495.358307 42.000000,493.036896 42.000000,490.715515 
	C42.000000,383.399200 41.991436,276.082886 42.019306,168.766556 
	C42.021160,161.624542 43.377354,155.020111 51.065170,152.017456 
	C52.675949,151.388367 54.506878,151.045212 56.237324,151.041656 
	C84.732681,150.983047 113.230370,151.186905 141.722000,150.855301 
	C148.047256,150.781677 155.159821,157.470108 155.146057,164.624527 
	C154.936111,273.773499 155.000000,382.922974 155.000000,492.072327 
	C155.000000,493.876343 155.000000,495.680389 155.000000,497.740723 
	C170.009308,497.740723 184.746521,497.740723 200.000000,497.740723 
	C200.000000,495.957397 200.000000,494.184448 200.000000,492.411530 
	C200.000000,456.917145 199.998062,421.422791 200.001373,385.928406 
	C200.002213,377.019989 206.072205,371.004669 215.050842,371.000763 
	C223.049576,370.997284 231.048355,370.981354 239.047012,371.006531 
	C244.375015,371.023285 248.114334,374.462646 247.958588,379.129761 
	C247.825317,383.123230 243.737244,386.909546 239.172104,386.972107 
	C231.680450,387.074799 224.186386,386.999908 216.346802,386.999908 
	C216.346802,423.831512 216.346802,460.566925 216.346802,497.651428 
	C242.828033,497.651428 269.564972,497.651428 296.651306,497.651428 
	C296.651306,461.172272 296.651306,424.436890 296.651306,386.999969 
	C290.011993,386.999969 283.069733,387.368866 276.183746,386.903992 
	C268.083344,386.357117 265.806610,383.245117 267.254486,377.380188 
	C267.867157,374.898468 271.145905,371.464630 273.429962,371.289093 
	C282.541382,370.588959 291.746735,370.758240 300.900574,371.081360 
	C307.576111,371.317047 312.992981,378.522888 312.995331,386.393677 
	C313.005951,421.888031 313.000000,457.382416 313.000000,492.876770 
	C313.000000,494.365723 313.000000,495.854706 313.000000,497.671631 
	C327.867889,497.671631 342.606659,497.671631 358.000000,497.671631 
	C358.000000,496.115356 358.000000,494.361145 358.000000,492.606903 
	C358.000000,420.951599 358.197266,349.295166 357.792419,277.642151 
	C357.729980,266.585327 364.061890,261.226105 373.754211,261.110779 
	C400.579498,260.791443 427.412872,260.820465 454.239258,261.088013 
	C465.067413,261.195984 470.263824,267.803375 470.138611,277.745575 
	C469.756622,308.069305 470.000336,338.400909 469.999695,368.729431 
	C469.999603,374.297180 467.382263,377.726898 462.930969,377.998993 
	C458.825439,378.249908 454.885498,374.718414 454.048004,369.879395 
	C453.823822,368.584229 454.000641,367.218964 454.000610,365.885864 
	C453.999786,337.557037 454.000000,309.228180 454.000000,280.899353 
	C454.000000,279.764862 454.000000,278.630341 454.000000,277.249176 
	C426.970490,277.249176 400.234894,277.249176 373.249268,277.249176 
	C373.249268,350.691406 373.249268,424.088348 373.249268,497.742798 
	C400.013245,497.742798 426.748901,497.742798 454.000000,497.742798 
	C454.000000,496.123413 454.000000,494.517334 454.000000,492.911224 
	C454.000000,464.749023 453.909821,436.586121 454.126404,408.425598 
	C454.150574,405.283691 455.264587,401.693146 457.061951,399.151215 
	C458.837860,396.639709 462.081848,396.050781 465.402100,397.800629 
	C468.458008,399.411224 470.082245,401.294495 470.066895,405.005859 
	C469.946289,434.167419 470.000000,463.329651 470.000000,492.491699 
	C470.000000,494.146729 470.000000,495.801758 470.000000,497.927429 
	C474.534210,497.263489 477.329224,499.541748 478.687225,503.349274 
	C480.039978,507.142029 477.900116,509.927124 475.083130,512.652832 
	C330.312439,513.000000 185.624878,513.000000 40.468658,513.000000 
M58.000000,438.500000 
	C58.000000,458.262421 58.000000,478.024811 58.000000,497.709717 
	C85.314003,497.709717 112.051842,497.709717 138.712372,497.709717 
	C138.712372,387.352020 138.712372,277.284821 138.712372,167.290329 
	C111.685913,167.290329 84.948082,167.290329 58.000000,167.290329 
	C58.000000,257.553650 58.000000,347.526825 58.000000,438.500000 
z"/>
<path fill="#000000" opacity="1.000000" stroke="none" 
	d="
M106.532394,1.000000 
	C114.300179,3.582110 121.192154,6.875687 126.358810,12.882814 
	C131.295456,18.622515 134.937836,25.017294 134.979843,32.856586 
	C135.044235,44.871861 136.386490,44.592049 129.211823,58.680935 
	C143.410477,62.107643 151.772827,71.407166 155.611633,85.135300 
	C156.003067,86.535141 155.980927,88.077827 155.984467,89.554634 
	C156.012421,101.218307 156.010147,112.882088 155.996475,124.545807 
	C155.987167,132.486328 149.934143,138.930923 141.966034,138.959534 
	C113.306938,139.062454 84.647232,139.011841 55.987778,138.991150 
	C49.287830,138.986313 41.125130,132.004715 41.774635,124.589455 
	C42.672626,114.337364 42.539566,103.913147 41.880363,93.624641 
	C40.737442,75.786430 53.230255,62.263828 68.752869,58.696617 
	C52.317806,32.889519 69.348076,6.042361 89.885674,1.367093 
	C95.354927,1.000000 100.709862,1.000000 106.532394,1.000000 
M128.991486,102.226631 
	C128.991486,109.138130 128.991486,116.049629 128.991486,122.814743 
	C133.014282,122.814743 136.300858,122.814743 139.996078,122.814743 
	C139.996078,111.688324 140.761490,100.671318 139.760147,89.817307 
	C138.919998,80.710739 132.233948,74.441513 122.925674,74.142067 
	C106.952209,73.628197 90.949280,73.895660 74.960655,74.044022 
	C66.951477,74.118340 58.405674,81.383316 58.115845,88.881874 
	C57.680756,100.138588 58.002628,111.424568 58.002628,122.764168 
	C61.546761,122.764168 64.617401,122.764168 68.000916,122.764168 
	C68.000916,117.070198 67.811363,111.597946 68.054970,106.145050 
	C68.291870,100.842102 71.905441,96.688416 76.028412,97.080780 
	C81.047043,97.558395 84.408005,99.982277 84.059158,106.512970 
	C83.770012,111.926048 84.000000,117.366852 84.000000,122.713295 
	C93.982727,122.713295 103.385345,122.713295 113.000023,122.713295 
	C113.000023,117.786354 112.740234,113.124260 113.097038,108.509834 
	C113.312531,105.722893 113.815628,102.533249 115.362823,100.359787 
	C118.948624,95.322563 123.393013,95.867226 128.991486,102.226631 
M87.796471,20.017906 
	C86.697197,21.013163 85.642830,22.064035 84.491013,22.994240 
	C78.903488,27.506720 76.423782,36.675858 79.594437,44.147518 
	C83.135429,52.491901 90.915634,58.318104 99.263504,57.929939 
	C107.401520,57.551533 113.667831,53.534222 117.237671,46.178196 
	C120.860924,38.712120 119.963135,31.312065 115.061302,24.657421 
	C108.545074,15.811124 95.162140,14.571304 87.796471,20.017906 
z"/>
<path fill="#000000" opacity="1.000000" stroke="none" 
	d="
M447.790039,162.565857 
	C446.420441,165.003799 445.240997,167.085999 443.874146,169.499039 
	C453.472168,171.351501 461.091095,176.428513 465.855774,184.667435 
	C468.496613,189.233887 470.443665,194.767654 470.774902,199.987778 
	C471.501373,211.436279 470.630829,222.978775 471.130280,234.451630 
	C471.460999,242.049057 466.151520,249.885956 456.058746,249.944077 
	C428.072815,250.105240 400.084991,250.080902 372.098663,249.957626 
	C361.795563,249.912231 356.554749,241.911835 356.868896,234.609222 
	C357.362457,223.135864 356.841797,211.622940 357.039062,200.131729 
	C357.299866,184.941788 370.449371,171.551849 383.665955,169.753403 
	C374.699432,148.746338 376.388947,130.781021 388.363403,121.234146 
	C404.891022,108.057152 420.841919,108.319206 434.774536,117.692184 
	C449.921906,127.882355 453.965637,144.810318 447.790039,162.565857 
M373.000000,228.397003 
	C373.000000,230.174042 373.000000,231.951096 373.000000,233.749817 
	C376.574585,233.749817 379.645935,233.749817 383.000000,233.749817 
	C383.000000,231.372177 382.897186,229.228210 383.021179,227.097443 
	C383.286926,222.531525 383.312378,217.909424 384.102539,213.427811 
	C384.936462,208.698395 389.562927,207.027695 393.445221,208.134552 
	C396.839813,209.102356 399.197632,211.509674 399.053406,215.706711 
	C398.844696,221.781326 399.000000,227.868454 399.000000,233.642517 
	C409.457794,233.642517 419.197449,233.642517 429.000031,233.642517 
	C429.000031,227.291016 428.960846,221.296387 429.013367,215.302582 
	C429.050293,211.088715 432.224731,208.020035 436.420288,208.000015 
	C441.615326,207.975250 444.831909,211.632690 444.975677,218.003830 
	C445.094482,223.268265 444.999939,228.537537 444.999939,233.712769 
	C448.647217,233.712769 451.721466,233.712769 455.000000,233.712769 
	C455.000000,223.120300 454.778717,212.807419 455.068024,202.508865 
	C455.311676,193.835846 446.122620,184.811325 437.679688,184.933868 
	C421.857422,185.163559 406.019531,185.331833 390.208099,184.858566 
	C382.422791,184.625534 372.327667,194.156281 372.878815,202.441803 
	C373.430450,210.734360 373.000000,219.092255 373.000000,228.397003 
M433.612701,153.909653 
	C433.735138,150.294327 434.672974,146.477127 433.836731,143.099121 
	C430.483124,129.552505 414.862915,122.905853 403.518890,130.312897 
	C391.921814,137.885178 389.369568,151.388550 399.158356,162.133682 
	C404.171265,167.636353 411.111267,170.189560 418.803009,167.941055 
	C425.747192,165.911072 431.146301,161.998901 433.612701,153.909653 
z"/>
<path fill="#000000" opacity="1.000000" stroke="none" 
	d="
M314.000000,332.990906 
	C313.667755,338.552277 313.676758,343.667755 312.914398,348.665588 
	C312.019836,354.530334 306.414978,358.976807 300.525024,358.983887 
	C271.199829,359.019165 241.874527,359.021759 212.549316,358.983551 
	C205.849472,358.974823 199.318802,353.090027 199.102936,346.058197 
	C198.735001,334.072815 198.142181,321.990082 199.220261,310.091095 
	C200.546844,295.449371 208.459717,284.902344 222.860748,279.970886 
	C223.919144,279.608490 224.904022,279.031311 226.281677,278.385986 
	C219.840347,270.227631 219.119919,260.618164 220.183075,251.009781 
	C221.029526,243.360046 224.762772,236.252014 230.527512,231.297821 
	C247.874268,216.390015 264.680969,218.412735 278.090454,227.930298 
	C292.307465,238.021011 298.934357,257.740906 286.971619,278.174042 
	C291.260956,280.444244 295.789612,282.359680 299.788330,285.059937 
	C307.579071,290.320892 312.162292,297.865692 312.927002,307.269684 
	C313.608551,315.651123 313.666748,324.083221 314.000000,332.990906 
M221.457687,343.000000 
	C222.894165,342.934784 224.330643,342.869537 226.000000,342.793732 
	C226.000000,339.655914 225.999985,336.851166 226.000000,334.046417 
	C226.000000,331.049438 225.492950,327.933899 226.157196,325.092194 
	C226.708801,322.732361 228.117630,319.782166 230.051483,318.677734 
	C237.147812,314.624847 241.998505,320.988068 241.999725,327.062317 
	C242.000778,332.317932 241.999954,337.573517 241.999954,342.700500 
	C252.013596,342.700500 261.414032,342.700500 271.000000,342.700500 
	C271.000000,337.259247 270.981750,332.116089 271.005096,326.973145 
	C271.029022,321.707214 274.881927,316.987885 279.068909,317.043518 
	C283.494507,317.102356 286.955811,321.304352 286.992310,326.747925 
	C287.027771,332.034271 287.000000,337.321075 287.000000,342.799133 
	C290.788422,342.799133 294.190063,342.799133 298.000000,342.799133 
	C298.000000,333.513000 298.000092,324.400696 297.999817,315.288391 
	C297.999786,314.455902 298.088318,313.611694 297.982635,312.792664 
	C296.309906,299.832947 288.590485,293.978577 276.352295,293.995575 
	C262.532867,294.014801 248.711426,293.857635 234.894623,294.049164 
	C225.401001,294.180756 217.141693,299.228577 216.271530,307.867371 
	C215.110031,319.398254 215.984436,331.134247 215.984436,343.000000 
	C217.212265,343.000000 218.856140,343.000000 221.457687,343.000000 
M275.111511,265.384094 
	C275.496674,261.173889 276.813141,256.792480 276.077118,252.788361 
	C274.441345,243.889191 267.996521,238.575043 259.506500,237.215363 
	C250.575272,235.785004 243.393600,239.472031 238.580765,247.739243 
	C234.120636,255.400635 235.721390,267.733978 242.545944,272.904358 
	C255.613403,282.804443 268.841797,277.423767 275.111511,265.384094 
z"/>
<path fill="#FFFFFF" opacity="1.000000" stroke="none" 
	d="
M58.000000,438.000000 
	C58.000000,347.526825 58.000000,257.553650 58.000000,167.290329 
	C84.948082,167.290329 111.685913,167.290329 138.712372,167.290329 
	C138.712372,277.284821 138.712372,387.352020 138.712372,497.709717 
	C112.051842,497.709717 85.314003,497.709717 58.000000,497.709717 
	C58.000000,478.024811 58.000000,458.262421 58.000000,438.000000 
z"/>
<path fill="#FFFFFF" opacity="1.000000" stroke="none" 
	d="
M128.930984,101.801628 
	C123.393013,95.867226 118.948624,95.322563 115.362823,100.359787 
	C113.815628,102.533249 113.312531,105.722893 113.097038,108.509834 
	C112.740234,113.124260 113.000023,117.786354 113.000023,122.713295 
	C103.385345,122.713295 93.982727,122.713295 84.000000,122.713295 
	C84.000000,117.366852 83.770012,111.926048 84.059158,106.512970 
	C84.408005,99.982277 81.047043,97.558395 76.028412,97.080780 
	C71.905441,96.688416 68.291870,100.842102 68.054970,106.145050 
	C67.811363,111.597946 68.000916,117.070198 68.000916,122.764168 
	C64.617401,122.764168 61.546761,122.764168 58.002628,122.764168 
	C58.002628,111.424568 57.680756,100.138588 58.115845,88.881874 
	C58.405674,81.383316 66.951477,74.118340 74.960655,74.044022 
	C90.949280,73.895660 106.952209,73.628197 122.925674,74.142067 
	C132.233948,74.441513 138.919998,80.710739 139.760147,89.817307 
	C140.761490,100.671318 139.996078,111.688324 139.996078,122.814743 
	C136.300858,122.814743 133.014282,122.814743 128.991486,122.814743 
	C128.991486,116.049629 128.991486,109.138130 128.930984,101.801628 
z"/>
<path fill="#FFFFFF" opacity="1.000000" stroke="none" 
	d="
M88.178612,19.970499 
	C95.162140,14.571304 108.545074,15.811124 115.061302,24.657421 
	C119.963135,31.312065 120.860924,38.712120 117.237671,46.178196 
	C113.667831,53.534222 107.401520,57.551533 99.263504,57.929939 
	C90.915634,58.318104 83.135429,52.491901 79.594437,44.147518 
	C76.423782,36.675858 78.903488,27.506720 84.491013,22.994240 
	C85.642830,22.064035 86.697197,21.013163 88.178612,19.970499 
z"/>
<path fill="#FFFFFF" opacity="1.000000" stroke="none" 
	d="
M373.000000,227.909256 
	C373.000000,219.092255 373.430450,210.734360 372.878815,202.441803 
	C372.327667,194.156281 382.422791,184.625534 390.208099,184.858566 
	C406.019531,185.331833 421.857422,185.163559 437.679688,184.933868 
	C446.122620,184.811325 455.311676,193.835846 455.068024,202.508865 
	C454.778717,212.807419 455.000000,223.120300 455.000000,233.712769 
	C451.721466,233.712769 448.647217,233.712769 444.999939,233.712769 
	C444.999939,228.537537 445.094482,223.268265 444.975677,218.003830 
	C444.831909,211.632690 441.615326,207.975250 436.420288,208.000015 
	C432.224731,208.020035 429.050293,211.088715 429.013367,215.302582 
	C428.960846,221.296387 429.000031,227.291016 429.000031,233.642517 
	C419.197449,233.642517 409.457794,233.642517 399.000000,233.642517 
	C399.000000,227.868454 398.844696,221.781326 399.053406,215.706711 
	C399.197632,211.509674 396.839813,209.102356 393.445221,208.134552 
	C389.562927,207.027695 384.936462,208.698395 384.102539,213.427811 
	C383.312378,217.909424 383.286926,222.531525 383.021179,227.097443 
	C382.897186,229.228210 383.000000,231.372177 383.000000,233.749817 
	C379.645935,233.749817 376.574585,233.749817 373.000000,233.749817 
	C373.000000,231.951096 373.000000,230.174042 373.000000,227.909256 
z"/>
<path fill="#FFFFFF" opacity="1.000000" stroke="none" 
	d="
M433.332123,154.208054 
	C431.146301,161.998901 425.747192,165.911072 418.803009,167.941055 
	C411.111267,170.189560 404.171265,167.636353 399.158356,162.133682 
	C389.369568,151.388550 391.921814,137.885178 403.518890,130.312897 
	C414.862915,122.905853 430.483124,129.552505 433.836731,143.099121 
	C434.672974,146.477127 433.735138,150.294327 433.332123,154.208054 
z"/>
<path fill="#FFFFFF" opacity="1.000000" stroke="none" 
	d="
M220.978851,343.000000 
	C218.856140,343.000000 217.212265,343.000000 215.984436,343.000000 
	C215.984436,331.134247 215.110031,319.398254 216.271530,307.867371 
	C217.141693,299.228577 225.401001,294.180756 234.894623,294.049164 
	C248.711426,293.857635 262.532867,294.014801 276.352295,293.995575 
	C288.590485,293.978577 296.309906,299.832947 297.982635,312.792664 
	C298.088318,313.611694 297.999786,314.455902 297.999817,315.288391 
	C298.000092,324.400696 298.000000,333.513000 298.000000,342.799133 
	C294.190063,342.799133 290.788422,342.799133 287.000000,342.799133 
	C287.000000,337.321075 287.027771,332.034271 286.992310,326.747925 
	C286.955811,321.304352 283.494507,317.102356 279.068909,317.043518 
	C274.881927,316.987885 271.029022,321.707214 271.005096,326.973145 
	C270.981750,332.116089 271.000000,337.259247 271.000000,342.700500 
	C261.414032,342.700500 252.013596,342.700500 241.999954,342.700500 
	C241.999954,337.573517 242.000778,332.317932 241.999725,327.062317 
	C241.998505,320.988068 237.147812,314.624847 230.051483,318.677734 
	C228.117630,319.782166 226.708801,322.732361 226.157196,325.092194 
	C225.492950,327.933899 226.000000,331.049438 226.000000,334.046417 
	C225.999985,336.851166 226.000000,339.655914 226.000000,342.793732 
	C224.330643,342.869537 222.894165,342.934784 220.978851,343.000000 
z"/>
<path fill="#FFFFFF" opacity="1.000000" stroke="none" 
	d="
M275.048889,265.775208 
	C268.841797,277.423767 255.613403,282.804443 242.545944,272.904358 
	C235.721390,267.733978 234.120636,255.400635 238.580765,247.739243 
	C243.393600,239.472031 250.575272,235.785004 259.506500,237.215363 
	C267.996521,238.575043 274.441345,243.889191 276.077118,252.788361 
	C276.813141,256.792480 275.496674,261.173889 275.048889,265.775208 
z"/>
</svg>